HIERARCHY
ROOT Hips
{
 OFFSET 0.000000 0.000000 0.000000
 CHANNELS 6 Xposition Yposition Zposition Yrotation Xrotation Zrotation
 JOINT Chest
 {
  OFFSET 0.000000 9.857222 0.000240
  CHANNELS 3 Yrotation Xrotation Zrotation
  JOINT Chest2
  {
   OFFSET 0.000000 10.876940 -0.000436
   CHANNELS 3 Yrotation Xrotation Zrotation
   JOINT Chest3
   {
    OFFSET 0.000000 9.827798 0.000000
    CHANNELS 3 Yrotation Xrotation Zrotation
    JOINT Chest4
    {
     OFFSET 0.000000 9.827798 0.000000
     CHANNELS 3 Yrotation Xrotation Zrotation
     JOINT Neck
     {
      OFFSET 0.000000 13.831992 0.000000
      CHANNELS 3 Yrotation Xrotation Zrotation
      JOINT Head
      {
       OFFSET 0.000000 9.147643 -0.001036
       CHANNELS 3 Yrotation Xrotation Zrotation
       End Site
       {
        OFFSET 0.000000 17.515799 -0.000541
       }
      }
     }
     JOINT RightCollar
     {
      OFFSET -3.001579 7.717577 0.000000
      CHANNELS 3 Yrotation Xrotation Zrotation
      JOINT RightShoulder
      {
       OFFSET -14.002642 0.000000 0.000000
       CHANNELS 3 Yrotation Xrotation Zrotation
       JOINT RightElbow
       {
        OFFSET -30.053852 0.000000 0.000000
        CHANNELS 3 Yrotation Xrotation Zrotation
        JOINT RightWrist
        {
         OFFSET -24.564923 0.000000 -0.000000
         CHANNELS 3 Yrotation Xrotation Zrotation
         End Site
         {
          OFFSET -18.334355 0.000000 0.000000
         }
        }
       }
      }
     }
     JOINT LeftCollar
     {
      OFFSET 3.001579 7.717577 0.000000
      CHANNELS 3 Yrotation Xrotation Zrotation
      JOINT LeftShoulder
      {
       OFFSET 14.002642 0.000000 0.000000
       CHANNELS 3 Yrotation Xrotation Zrotation
       JOINT LeftElbow
       {
        OFFSET 30.053852 0.000000 0.000000
        CHANNELS 3 Yrotation Xrotation Zrotation
        JOINT LeftWrist
        {
         OFFSET 24.564923 0.000000 -0.000000
         CHANNELS 3 Yrotation Xrotation Zrotation
         End Site
         {
          OFFSET 18.334355 0.000000 0.000000
         }
        }
       }
      }
     }
    }
   }
  }
 }
 JOINT RightHip
 {
  OFFSET -8.003235 -0.001175 -0.000120
  CHANNELS 3 Yrotation Xrotation Zrotation
  JOINT RightKnee
  {
   OFFSET 0.000000 -41.759727 0.000113
   CHANNELS 3 Yrotation Xrotation Zrotation
   JOINT RightAnkle
   {
    OFFSET 0.000000 -40.728748 0.000159
    CHANNELS 3 Yrotation Xrotation Zrotation
    JOINT RightToe
    {
     OFFSET 0.000000 -6.515296 14.732841
     CHANNELS 3 Yrotation Xrotation Zrotation
     End Site
     {
      OFFSET 0.000000 -1.502839 6.412115
     }
    }
   }
  }
 }
 JOINT LeftHip
 {
  OFFSET 8.003235 -0.001175 -0.000120
  CHANNELS 3 Yrotation Xrotation Zrotation
  JOINT LeftKnee
  {
   OFFSET 0.000000 -41.759727 0.000113
   CHANNELS 3 Yrotation Xrotation Zrotation
   JOINT LeftAnkle
   {
    OFFSET 0.000000 -40.728748 0.000159
    CHANNELS 3 Yrotation Xrotation Zrotation
    JOINT LeftToe
    {
     OFFSET 0.000000 -6.515296 14.732841
     CHANNELS 3 Yrotation Xrotation Zrotation
     End Site
     {
      OFFSET 0.000000 -1.502839 6.412115
     }
    }
   }
  }
 }
}
MOTION
Frames: 7
Frame Time: 0.016667
4.567190 90.156826 18.954624 -33.680990 11.465962 1.114662 -4.277075 6.033254 0.599800 -2.322195 3.119100 0.176444 -2.322195 3.119100 0.176444 -1.742117 2.338695 0.144165 -2.765048 12.876720 1.090510 -5.703913 -12.162970 3.213018 11.799759 -17.918937 -3.194334 -7.764187 5.704794 8.414210 -0.860872 -3.053651 -2.247043 14.585291 1.341733 -6.400821 0.399432 -12.524307 -3.947819 30.578735 5.995839 -7.326788 -0.327688 -20.809776 1.094901 -11.393809 -1.993928 3.742478 -3.522444 -2.019960 -7.823440 -1.121386 -6.656679 4.904226 -3.622234 -2.831694 2.200468 0.785626 -0.230094 0.329794 3.995026 -10.162951 1.075273 1.234995 2.676395 0.659714 3.023707 -3.468592 -3.579781 -0.065424 0.283180 -0.027860
4.559035 90.153526 18.921836 -33.727631 11.193793 1.097469 -4.207618 5.965202 0.543259 -2.272102 3.074740 0.155885 -2.272102 3.074740 0.155885 -1.704453 2.305514 0.128329 -2.825228 12.983419 1.115211 -5.822267 -11.960190 3.277965 12.166779 -17.733961 -3.409805 -6.949980 4.483270 6.282234 0.297595 -0.016534 -0.942526 15.099073 1.192875 -6.754196 0.000914 -12.430574 -3.479249 29.475733 4.316882 -6.618502 -1.340120 -18.521811 1.848169 -11.559863 -1.736883 4.210903 -3.629510 -1.761512 -7.820248 -1.021689 -6.704068 4.928286 -3.646323 -2.775765 2.188673 0.777992 -0.233952 0.321781 4.066885 -9.892931 1.091258 1.262840 2.667489 0.690516 2.993964 -3.466478 -3.594187 -0.068852 0.287490 -0.036054
4.565364 90.148132 18.877234 -33.795471 10.916773 1.070869 -4.191065 5.886298 0.538306 -2.232647 3.005498 0.153004 -2.232647 3.005498 0.153004 -1.674854 2.253601 0.125717 -2.847165 13.091593 1.093577 -5.848908 -11.759623 3.239173 12.622331 -17.341805 -3.603273 -5.791385 3.318198 4.442746 1.699521 2.691974 -0.040003 15.525721 1.091045 -7.204503 -0.376202 -12.303649 -3.132029 28.352532 3.523643 -5.506818 -2.683935 -16.945682 2.253514 -11.682523 -1.493785 4.722612 -3.588949 -1.516419 -7.796533 -0.984967 -6.706062 4.911324 -3.606238 -2.772337 2.181838 0.777147 -0.204685 0.318782 4.145435 -9.648472 1.122085 1.332775 2.683128 0.715159 2.917825 -3.471538 -3.604284 -0.069220 0.305039 -0.043372
4.583997 90.146178 18.807435 -33.898391 10.585227 1.045870 -4.143065 5.844783 0.542327 -2.195395 2.969737 0.149488 -2.195395 2.969737 0.149488 -1.646904 2.226800 0.122769 -2.860195 13.153276 1.073807 -5.862085 -11.645683 3.203190 13.033094 -17.045116 -3.667002 -4.244572 2.599821 2.924232 3.212198 4.870942 0.392904 15.855216 0.932947 -7.740859 -0.793084 -12.181994 -2.888021 27.136817 3.296604 -4.187136 -4.429791 -16.236169 2.478381 -11.732701 -1.354330 5.198121 -3.431949 -1.251268 -7.785106 -0.996955 -6.666720 4.891783 -3.611049 -2.770882 2.171349 0.775221 -0.171322 0.318230 4.298568 -9.363262 1.161961 1.372233 2.706268 0.696379 2.835578 -3.463906 -3.589579 -0.066996 0.316879 -0.048494
4.617921 90.149216 18.737093 -33.957829 10.088356 1.059630 -4.073691 5.811747 0.504569 -2.169199 2.960854 0.130546 -2.169199 2.960854 0.130546 -1.627170 2.220211 0.108407 -2.894284 13.239740 1.074520 -5.922101 -11.483341 3.212994 13.191398 -16.669826 -3.665223 -2.265111 2.540972 1.833377 4.867494 6.168428 0.400418 16.066091 0.766496 -8.189816 -1.228484 -12.025074 -2.677823 25.791683 3.139936 -2.759977 -6.487569 -15.969804 2.701802 -11.759587 -1.042789 5.492649 -3.316523 -0.842998 -7.832268 -0.969466 -6.601483 4.874759 -3.643553 -2.768753 2.185808 0.736317 -0.147867 0.303990 4.335496 -8.937132 1.186484 1.448120 2.751676 0.682242 2.801209 -3.420363 -3.572801 -0.065691 0.299032 -0.050976
4.657264 90.155167 18.663577 -33.956732 9.456726 1.089289 -4.023544 5.785705 0.461655 -2.158519 2.963322 0.109367 -2.158519 2.963322 0.109367 -1.619059 2.222138 0.092483 -2.951685 13.366414 1.070789 -6.022112 -11.245359 3.221184 13.271720 -16.056237 -3.743757 -0.092167 2.905006 1.027069 6.671814 6.888947 0.313685 16.248064 0.600678 -8.614939 -1.632912 -11.793620 -2.529073 24.477331 3.029494 -1.299776 -8.971592 -15.589613 2.969426 -11.716960 -0.835009 5.796087 -3.304450 -0.302340 -7.897410 -0.945656 -6.541456 4.865978 -3.608173 -2.749824 2.204514 0.686187 -0.138464 0.286453 4.234704 -8.403146 1.230769 1.548317 2.835649 0.657905 2.791567 -3.372743 -3.555604 -0.060004 0.265387 -0.048170
4.699597 90.161320 18.586097 -33.891646 8.730916 1.125188 -3.990030 5.821038 0.426459 -2.149778 2.983582 0.096061 -2.149778 2.983582 0.096061 -1.612438 2.237382 0.082534 -3.041241 13.505247 1.049926 -6.175223 -10.984043 3.208901 13.638371 -15.427099 -3.852746 1.879542 3.651157 0.412266 8.518438 7.355150 -0.031727 16.411123 0.468861 -8.967055 -2.169817 -11.512237 -2.413232 23.378757 2.714955 0.045459 -11.940162 -15.000973 3.282932 -11.626853 -0.607795 6.175370 -3.340831 0.343450 -7.978007 -0.991595 -6.489300 4.890118 -3.482958 -2.726004 2.210069 0.627549 -0.134723 0.265730 4.099119 -7.802068 1.275214 1.570979 2.945957 0.645180 2.796270 -3.325394 -3.547763 -0.054576 0.229621 -0.043889
